<svg width="55" height="43" viewBox="0 0 55 43" fill="none" xmlns="http://www.w3.org/2000/svg">
<path d="M46.541 4.18995C42.9345 2.53281 39.1249 1.35933 35.211 0.699951C34.6722 1.67216 34.1881 2.67373 33.761 3.69995C29.5913 3.06991 25.3507 3.06991 21.181 3.69995C20.7463 2.67548 20.259 1.67415 19.721 0.699951C15.8046 1.36742 11.9923 2.54406 8.38101 4.19995C1.21101 14.81 -0.738991 25.16 0.231009 35.36C4.43066 38.4758 9.13632 40.8438 14.141 42.36C15.2752 40.8479 16.2788 39.2421 17.141 37.56C15.5133 36.9562 13.9436 36.2065 12.451 35.32C12.851 35.04 13.231 34.7399 13.601 34.4599C17.9496 36.5044 22.6957 37.5644 27.501 37.5644C32.3063 37.5644 37.0524 36.5044 41.401 34.4599C41.781 34.77 42.161 35.06 42.551 35.32C41.0541 36.2077 39.4812 36.9606 37.851 37.57C38.7135 39.2487 39.7171 40.8512 40.851 42.36C45.8576 40.8485 50.564 38.4801 54.761 35.36C55.8916 24.3169 52.9702 13.2394 46.541 4.18995ZM18.351 29.09C16.9626 29.0225 15.6574 28.4083 14.7205 27.3815C13.7836 26.3546 13.2912 24.9987 13.351 23.61C13.351 20.61 15.511 18.1 18.291 18.1C18.9795 18.1318 19.6547 18.3002 20.2775 18.5954C20.9004 18.8905 21.4583 19.3066 21.9189 19.8193C22.3795 20.332 22.7335 20.9311 22.9605 21.5819C23.1875 22.2326 23.2828 22.922 23.241 23.61C23.241 26.63 21.111 29.09 18.351 29.09ZM36.601 29.09C35.2223 29.0098 33.9308 28.3897 33.0061 27.364C32.0815 26.3383 31.5982 24.9895 31.661 23.61C31.661 20.61 33.821 18.1 36.601 18.1C37.2891 18.1318 37.9639 18.3002 38.5862 18.5955C39.2085 18.8908 39.7658 19.307 40.2255 19.8199C40.6853 20.3327 41.0385 20.9319 41.2643 21.5827C41.4902 22.2334 41.5842 22.9225 41.541 23.61C41.491 26.63 39.361 29.09 36.601 29.09Z" fill="white"/>
</svg>
