<?xml version="1.0" encoding="utf-8"?>
<!-- Generator: Adobe Illustrator 26.0.3, SVG Export Plug-In . SVG Version: 6.00 Build 0)  -->
<svg version="1.1" id="Layer_1" xmlns="http://www.w3.org/2000/svg" xmlns:xlink="http://www.w3.org/1999/xlink" x="0px" y="0px"
	 viewBox="0 0 144 144" style="enable-background:new 0 0 144 144;" xml:space="preserve">
<style type="text/css">
	.st0{fill:#FFFFFF;}
</style>
<polygon class="st0" points="48,0 36,0 24,0 12,0 0,0 0,12 0,24 0,36 0,48 0,60 0,72 12,72 24,72 36,72 48,72 60,72 60,60 60,48 
	60,36 48,36 36,36 36,48 48,48 48,60 36,60 24,60 24,48 24,36 24,24 36,24 48,24 60,24 60,12 60,0 "/>
<polygon class="st0" points="60,84 48,84 36,84 24,84 12,84 0,84 0,96 0,108 12,108 12,120 12,132 12,144 24,144 36,144 36,132 
	36,120 36,108 48,108 60,108 72,108 72,96 72,84 "/>
<polygon class="st0" points="60,120 48,120 48,132 48,144 60,144 72,144 72,132 72,120 "/>
<polygon class="st0" points="132,24 120,24 108,24 96,24 96,12 108,12 120,12 120,0 108,0 96,0 84,0 72,0 72,12 72,24 72,36 72,48 
	84,48 96,48 108,48 120,48 120,60 108,60 96,60 84,60 72,60 72,72 84,72 96,72 108,72 120,72 132,72 144,72 144,60 144,48 144,36 
	144,24 "/>
<polygon class="st0" points="132,84 120,84 120,96 120,108 132,108 144,108 144,96 144,84 "/>
<polygon class="st0" points="132,120 120,120 108,120 108,108 108,96 108,84 96,84 84,84 84,96 84,108 84,120 84,132 84,144 96,144 
	108,144 120,144 132,144 144,144 144,132 144,120 "/>
</svg>
