<svg width="297" height="60" viewBox="0 0 297 60" fill="none" xmlns="http://www.w3.org/2000/svg">
<g clip-path="url(#clip0_173_50)">
<path d="M46.85 11.47C43.2372 9.80457 39.4212 8.6211 35.5 7.95C34.9668 8.90804 34.4828 9.89265 34.05 10.9C29.8803 10.27 25.6397 10.27 21.47 10.9C21.0371 9.89265 20.5532 8.90804 20.02 7.95C16.1039 8.62905 12.2923 9.81221 8.67999 11.47C1.49999 22.06 -0.440008 32.41 0.499992 42.61C4.69608 45.7257 9.39843 48.0938 14.4 49.61C15.534 48.0977 16.5376 46.492 17.4 44.81C15.7742 44.2019 14.2048 43.4524 12.71 42.57C13.1 42.29 13.49 41.99 13.86 41.71C18.2086 43.7545 22.9547 44.8145 27.76 44.8145C32.5653 44.8145 37.3114 43.7545 41.66 41.71C42.03 42.01 42.42 42.31 42.81 42.57C41.3149 43.4585 39.7417 44.2083 38.11 44.81C38.9687 46.4941 39.9725 48.1001 41.11 49.61C46.1124 48.0882 50.8171 45.7206 55.02 42.61C56.1548 31.5833 53.252 20.5193 46.85 11.47ZM18.65 36.34C17.2687 36.2599 15.9746 35.6387 15.048 34.6111C14.1215 33.5835 13.6372 32.2322 13.7 30.85C13.6622 30.1643 13.7601 29.4778 13.9881 28.83C14.2161 28.1822 14.5697 27.5857 15.0286 27.0748C15.4875 26.5639 16.0427 26.1485 16.6624 25.8526C17.2821 25.5566 17.9542 25.3858 18.64 25.35C19.3319 25.3754 20.0117 25.5388 20.6396 25.8305C21.2675 26.1222 21.8308 26.5363 22.2965 27.0486C22.7623 27.5609 23.121 28.161 23.3517 28.8138C23.5824 29.4666 23.6804 30.1588 23.64 30.85C23.55 33.88 21.41 36.34 18.65 36.34ZM36.9 36.34C35.5195 36.2599 34.2264 35.6384 33.3014 34.6105C32.3765 33.5826 31.8945 32.2312 31.96 30.85C31.8485 30.1367 31.8928 29.4078 32.0898 28.7133C32.2868 28.0188 32.6318 27.3752 33.1012 26.8267C33.5706 26.2782 34.1532 25.8379 34.809 25.536C35.4647 25.2341 36.1781 25.0777 36.9 25.0777C37.6219 25.0777 38.3353 25.2341 38.991 25.536C39.6468 25.8379 40.2294 26.2782 40.6988 26.8267C41.1682 27.3752 41.5132 28.0188 41.7102 28.7133C41.9072 29.4078 41.9515 30.1367 41.84 30.85C41.8 33.88 39.67 36.34 36.9 36.34Z" fill="white"/>
<path d="M71.5 1.96H89.68C93.4928 1.85392 97.2852 2.55243 100.81 4.01C103.602 5.18612 105.973 7.18031 107.61 9.73C109.137 12.2475 109.921 15.1459 109.87 18.09C109.897 21.0524 109.075 23.9606 107.5 26.47C105.752 29.1254 103.247 31.1948 100.31 32.41C96.5139 33.9949 92.4214 34.7451 88.31 34.61H71.5V1.96ZM88.19 26.3C91.1433 26.3 93.4133 25.5633 95 24.09C95.7962 23.3134 96.4198 22.3777 96.8298 21.3438C97.2399 20.3099 97.4274 19.2012 97.38 18.09C97.4296 17.052 97.2671 16.0149 96.9026 15.0418C96.5382 14.0686 95.9792 13.18 95.26 12.43C93.84 11.01 91.7 10.31 88.84 10.3H83.16V26.3H88.19Z" fill="white"/>
<path d="M137.07 34.55C134.671 33.9498 132.375 32.9924 130.26 31.71V23.97C132.107 25.3106 134.185 26.3004 136.39 26.89C138.803 27.6231 141.308 28.007 143.83 28.03C144.699 28.0691 145.565 27.919 146.37 27.59C146.95 27.29 147.23 26.92 147.23 26.53C147.237 26.3155 147.199 26.1019 147.12 25.9023C147.041 25.7028 146.922 25.5216 146.77 25.37C146.237 24.9623 145.612 24.6911 144.95 24.58L139.35 23.32C136.15 22.57 133.87 21.54 132.53 20.22C131.854 19.5392 131.328 18.7253 130.984 17.8302C130.639 16.935 130.485 15.978 130.53 15.02C130.508 13.2835 131.14 11.6023 132.3 10.31C133.666 8.85591 135.39 7.78679 137.3 7.21C139.774 6.43142 142.357 6.05991 144.95 6.11C147.369 6.08944 149.781 6.37163 152.13 6.95C154.029 7.39787 155.852 8.12227 157.54 9.1V16.47C155.963 15.5388 154.268 14.8257 152.5 14.35C150.575 13.8398 148.592 13.581 146.6 13.58C143.68 13.58 142.22 14.08 142.22 15.07C142.224 15.2835 142.289 15.4913 142.408 15.6687C142.527 15.8461 142.694 15.9854 142.89 16.07C143.687 16.4108 144.524 16.6526 145.38 16.79L150.04 17.63C152.511 17.922 154.854 18.8909 156.81 20.43C157.586 21.1836 158.189 22.0974 158.576 23.1078C158.963 24.1181 159.124 25.2007 159.05 26.28C159.074 27.6296 158.744 28.9619 158.093 30.1443C157.442 31.3268 156.493 32.3183 155.34 33.02C152.89 34.66 149.34 35.49 144.82 35.48C142.207 35.5049 139.603 35.1923 137.07 34.55Z" fill="white"/>
<path d="M170.08 33.57C167.598 32.4234 165.511 30.5691 164.08 28.24C162.725 25.9579 162.033 23.3436 162.08 20.69C162.04 18.0395 162.769 15.4342 164.18 13.19C165.68 10.8948 167.817 9.08756 170.33 7.99C173.386 6.65811 176.697 6.01294 180.03 6.1C184.102 5.94605 188.132 6.96662 191.64 9.04V17.58C190.469 16.7911 189.189 16.1779 187.84 15.76C186.332 15.2882 184.76 15.0521 183.18 15.06C180.811 14.9307 178.455 15.4824 176.39 16.65C175.654 17.0591 175.041 17.6559 174.611 18.3796C174.181 19.1033 173.951 19.928 173.944 20.7696C173.937 21.6112 174.153 22.4397 174.57 23.1706C174.988 23.9014 175.591 24.5085 176.32 24.93C177.913 25.9967 180.213 26.53 183.22 26.53C184.777 26.5366 186.327 26.3142 187.82 25.87C189.18 25.4794 190.487 24.9218 191.71 24.21V32.47C188.105 34.5692 183.99 35.6316 179.82 35.54C176.465 35.643 173.131 34.9688 170.08 33.57Z" fill="white"/>
<path d="M203.21 33.57C200.688 32.4172 198.547 30.568 197.04 28.24C195.625 25.9641 194.892 23.3298 194.93 20.65C194.882 17.9971 195.616 15.3888 197.04 13.15C198.551 10.881 200.683 9.09349 203.18 8C209.307 5.51025 216.163 5.51025 222.29 8C224.777 9.08759 226.898 10.8686 228.4 13.13C229.819 15.3704 230.55 17.9783 230.5 20.63C230.551 23.3555 229.797 26.0354 228.333 28.3351C226.869 30.6347 224.761 32.452 222.27 33.56C219.259 34.8513 216.016 35.5172 212.74 35.5172C209.464 35.5172 206.221 34.8513 203.21 33.56V33.57ZM217.37 25.3C217.947 24.7062 218.396 24.0006 218.69 23.2268C218.984 22.4529 219.117 21.627 219.08 20.8C219.12 19.9802 218.988 19.1611 218.694 18.3949C218.399 17.6288 217.948 16.9323 217.37 16.35C216.744 15.7756 216.009 15.3327 215.208 15.0476C214.408 14.7624 213.558 14.6408 212.71 14.69C211.862 14.6464 211.014 14.7706 210.215 15.0555C209.415 15.3404 208.679 15.7803 208.05 16.35C207.473 16.9328 207.024 17.6296 206.731 18.3958C206.438 19.162 206.308 19.9808 206.35 20.8C206.312 21.6263 206.443 22.4518 206.735 23.2256C207.028 23.9994 207.475 24.7053 208.05 25.3C208.672 25.8825 209.406 26.3334 210.207 26.6255C211.007 26.9176 211.859 27.045 212.71 27C213.562 27.0509 214.415 26.9262 215.216 26.6338C216.018 26.3414 216.751 25.8874 217.37 25.3Z" fill="white"/>
<path d="M258.5 7.82V17.91C257.107 17.0778 255.501 16.6712 253.88 16.74C252.817 16.6742 251.752 16.8435 250.762 17.2358C249.771 17.6281 248.88 18.2339 248.15 19.01C246.817 20.51 246.15 22.8433 246.15 26.01V34.59H234.75V7.32H245.94V15.98C246.56 12.81 247.56 10.48 248.94 8.98C249.611 8.23863 250.435 7.65239 251.356 7.26208C252.276 6.87178 253.271 6.68679 254.27 6.72C255.756 6.67154 257.225 7.05352 258.5 7.82Z" fill="white"/>
<path d="M296.5 1.03V34.6H285.05V28.47C284.187 30.651 282.639 32.4932 280.64 33.72C278.431 34.9765 275.92 35.6026 273.38 35.53C270.99 35.5866 268.637 34.9322 266.62 33.65C264.668 32.3775 263.112 30.5828 262.13 28.47C261.061 26.1377 260.528 23.5954 260.57 21.03C260.496 18.3715 261.062 15.7343 262.22 13.34C263.291 11.147 264.958 9.29993 267.03 8.01C269.156 6.72006 271.604 6.05789 274.09 6.1C279.53 6.1 283.197 8.46333 285.09 13.19V1.03H296.5ZM283.4 25.14C283.982 24.5668 284.438 23.8786 284.74 23.1193C285.041 22.3601 285.181 21.5463 285.15 20.73C285.172 19.9344 285.025 19.1432 284.718 18.4088C284.411 17.6744 283.951 17.0135 283.37 16.47C282.063 15.407 280.43 14.8267 278.745 14.8267C277.06 14.8267 275.427 15.407 274.12 16.47C273.547 17.0279 273.097 17.6996 272.799 18.4419C272.501 19.1842 272.362 19.9806 272.39 20.78C272.362 21.5871 272.503 22.3912 272.804 23.1404C273.106 23.8897 273.561 24.5674 274.14 25.13C274.752 25.6993 275.471 26.1404 276.256 26.4272C277.041 26.714 277.875 26.8408 278.71 26.8C279.558 26.848 280.407 26.7259 281.208 26.4408C282.008 26.1557 282.743 25.7135 283.37 25.14H283.4Z" fill="white"/>
<path d="M119.47 10.24C122.612 10.24 125.16 7.9477 125.16 5.12C125.16 2.2923 122.612 0 119.47 0C116.327 0 113.78 2.2923 113.78 5.12C113.78 7.9477 116.327 10.24 119.47 10.24Z" fill="white"/>
<path d="M113.77 13.75C115.575 14.5074 117.513 14.8976 119.47 14.8976C121.427 14.8976 123.365 14.5074 125.17 13.75V34.75H113.77V13.75Z" fill="white"/>
<path d="M72.586 55.19H76.078V50.69H82.036V47.792H76.078V45.65H82.666V42.59H72.586V55.19ZM90.5939 55.442C94.4819 55.442 97.3979 52.508 97.3979 48.89V48.854C97.3979 45.236 94.5179 42.338 90.6299 42.338C86.7419 42.338 83.8259 45.272 83.8259 48.89V48.926C83.8259 52.544 86.7059 55.442 90.5939 55.442ZM90.6299 52.292C88.7219 52.292 87.4079 50.708 87.4079 48.89V48.854C87.4079 47.036 88.6859 45.488 90.5939 45.488C92.5199 45.488 93.8339 47.072 93.8339 48.89V48.926C93.8339 50.744 92.5559 52.292 90.6299 52.292ZM99.2168 55.19H102.709V51.374H104.203H104.239L106.777 55.19H110.809L107.803 50.798C109.369 50.132 110.395 48.854 110.395 46.928V46.892C110.395 45.65 110.017 44.678 109.279 43.958C108.433 43.094 107.101 42.59 105.175 42.59H99.2168V55.19ZM102.709 48.638V45.614H104.995C106.165 45.614 106.885 46.118 106.885 47.108V47.144C106.885 48.062 106.201 48.638 105.013 48.638H102.709ZM117.147 55.19H120.567V47.99L123.771 52.886H123.843L127.065 47.954V55.19H130.539V42.59H126.849L123.843 47.468L120.837 42.59H117.147V55.19ZM139.109 55.442C142.997 55.442 145.913 52.508 145.913 48.89V48.854C145.913 45.236 143.033 42.338 139.145 42.338C135.257 42.338 132.341 45.272 132.341 48.89V48.926C132.341 52.544 135.221 55.442 139.109 55.442ZM139.145 52.292C137.237 52.292 135.923 50.708 135.923 48.89V48.854C135.923 47.036 137.201 45.488 139.109 45.488C141.035 45.488 142.349 47.072 142.349 48.89V48.926C142.349 50.744 141.071 52.292 139.145 52.292ZM147.732 55.19H151.224V51.374H152.718H152.754L155.292 55.19H159.324L156.318 50.798C157.884 50.132 158.91 48.854 158.91 46.928V46.892C158.91 45.65 158.532 44.678 157.794 43.958C156.948 43.094 155.616 42.59 153.69 42.59H147.732V55.19ZM151.224 48.638V45.614H153.51C154.68 45.614 155.4 46.118 155.4 47.108V47.144C155.4 48.062 154.716 48.638 153.528 48.638H151.224ZM160.67 55.19H170.894V52.22H164.126V50.222H170.174V47.468H164.126V45.56H170.804V42.59H160.67V55.19ZM177.74 55.19H181.25V42.59H177.74V55.19ZM183.557 55.19H187.013V48.278L192.395 55.19H195.455V42.59H191.999V49.25L186.815 42.59H183.557V55.19ZM197.69 55.19H201.182V50.69H207.14V47.792H201.182V45.65H207.77V42.59H197.69V55.19ZM215.697 55.442C219.585 55.442 222.501 52.508 222.501 48.89V48.854C222.501 45.236 219.621 42.338 215.733 42.338C211.845 42.338 208.929 45.272 208.929 48.89V48.926C208.929 52.544 211.809 55.442 215.697 55.442ZM215.733 52.292C213.825 52.292 212.511 50.708 212.511 48.89V48.854C212.511 47.036 213.789 45.488 215.697 45.488C217.623 45.488 218.937 47.072 218.937 48.89V48.926C218.937 50.744 217.659 52.292 215.733 52.292ZM225.22 51.086H227.02L228.064 44.12V42.59H224.176V44.12L225.22 51.086ZM224.338 55.19H227.902V52.13H224.338V55.19Z" fill="white"/>
</g>
<defs>
<clipPath id="clip0_173_50">
<rect width="296.17" height="59.3" fill="white" transform="translate(0.299988)"/>
</clipPath>
</defs>
</svg>
