<svg width="563" height="116" viewBox="0 0 563 116" fill="none" xmlns="http://www.w3.org/2000/svg">
<path d="M375 0H360.6V14.4V28.8V43.2V57.7V72.1H375H389.4V57.7V43.2V28.8V14.4V0H375Z" fill="white"/>
<path d="M86.5 0H72.1H57.7H43.3H28.8H14.4H0V14.4V28.8V43.2V57.7V72.1V86.5V100.9V115.4H14.4H28.8H43.3H57.7H72.1H86.5H101V100.9V86.5V72.1V57.7V43.2H86.5H72.1H57.7H43.3V57.7V72.1H57.7H72.1V86.5H57.7H43.3H28.8V72.1V57.7V43.2V28.8H43.3H57.7H72.1H86.5H101V14.4V0H86.5Z" fill="white"/>
<path d="M375 86.5H360.6H346.2V72.1V57.7V43.2V28.8V14.4V0H331.7H317.3V14.4V28.8V43.2V57.7V72.1V86.5V100.9V115.4H331.7H346.2H360.6H375H389.4V100.9V86.5H375Z" fill="white"/>
<path d="M274 43.2V57.7V72.1H288.5H302.9V57.7V43.2H288.5H274Z" fill="white"/>
<path d="M274 86.5V100.9V115.4H288.5H302.9V100.9V86.5H288.5H274Z" fill="white"/>
<path d="M274 0H259.6H245.2H230.8H216.4H201.9H187.5V14.4V28.8H201.9H216.4H230.8V43.2V57.7V72.1V86.5V100.9V115.4H245.2H259.6V100.9V86.5V72.1V57.7V43.2V28.8H274H288.5H302.9V14.4V0H288.5H274Z" fill="white"/>
<path d="M187.5 43.2H173.1H158.7H144.2V28.8H158.7H173.1V14.4V0H158.7H144.2H129.8H115.4V14.4V28.8V43.2V57.7V72.1H129.8H144.2H158.7H173.1H187.5V86.5H173.1H158.7H144.2H129.8H115.4V100.9V115.4H129.8H144.2H158.7H173.1H187.5H201.9H216.4V100.9V86.5V72.1V57.7V43.2H201.9H187.5Z" fill="white"/>
<path d="M461.6 0H447.1V14.4V28.8V43.2V57.7V72.1V86.5H432.7V72.1V57.7V43.2V28.8V14.4V0H418.3H403.9V14.4V28.8V43.2V57.7V72.1V86.5V100.9V115.4H418.3H432.7H447.1H461.6H476V100.9V86.5V72.1V57.7V43.2V28.8V14.4V0H461.6Z" fill="white"/>
<path d="M548.1 0H533.7H519.2H504.8H490.4V14.4V28.8V43.2V57.7V72.1V86.5V100.9V115.4H504.8H519.2H533.7H548.1H562.5V100.9V86.5H548.1H533.7H519.2V72.1H533.7H548.1H562.5V57.7V43.2H548.1H533.7H519.2V28.8H533.7H548.1H562.5V14.4V0H548.1Z" fill="white"/>
</svg>
