<svg width="257" height="56" viewBox="0 0 257 56" fill="none" xmlns="http://www.w3.org/2000/svg">
<g clip-path="url(#clip0_173_861)">
<path d="M34.8 26.5L0 8.8V44.3L34.8 26.5Z" fill="white"/>
<path d="M7.90002 18.1L36.3 32.6L7.90002 47.1V18.1ZM5.90002 14.9V50.4L40.7 32.6L5.90002 14.9Z" fill="white"/>
<path d="M58.4719 54.0044H61.9819V49.2344L66.7699 41.4044H62.8639L60.2539 45.9944L57.6619 41.4044H53.6839L58.4719 49.2884V54.0044ZM73.002 54.2564C76.89 54.2564 79.806 51.3224 79.806 47.7044V47.6684C79.806 44.0504 76.926 41.1524 73.038 41.1524C69.15 41.1524 66.234 44.0864 66.234 47.7044V47.7404C66.234 51.3584 69.114 54.2564 73.002 54.2564ZM73.038 51.1064C71.13 51.1064 69.816 49.5224 69.816 47.7044V47.6684C69.816 45.8504 71.094 44.3024 73.002 44.3024C74.928 44.3024 76.242 45.8864 76.242 47.7044V47.7404C76.242 49.5584 74.964 51.1064 73.038 51.1064ZM87.295 54.2384C90.877 54.2384 93.199 52.4564 93.199 48.3884V41.4044H89.653V48.4964C89.653 50.2604 88.735 51.0884 87.331 51.0884C85.927 51.0884 85.009 50.2244 85.009 48.4064V41.4044H81.463V48.4784C81.463 52.4204 83.713 54.2384 87.295 54.2384ZM95.2656 54.0044H98.7576V50.1884H100.252H100.288L102.826 54.0044H106.858L103.852 49.6124C105.418 48.9464 106.444 47.6684 106.444 45.7424V45.7064C106.444 44.4644 106.066 43.4924 105.328 42.7724C104.482 41.9084 103.15 41.4044 101.224 41.4044H95.2656V54.0044ZM98.7576 47.4524V44.4284H101.044C102.214 44.4284 102.934 44.9324 102.934 45.9224V45.9584C102.934 46.8764 102.25 47.4524 101.062 47.4524H98.7576ZM116.273 54.0044H119.765V44.4644H123.545V41.4044H112.493V44.4644H116.273V54.0044ZM125.078 54.0044H135.302V51.0344H128.534V49.0364H134.582V46.2824H128.534V44.3744H135.212V41.4044H125.078V54.0044ZM136.076 54.0044H139.748L140.648 51.7544H145.508L146.426 54.0044H150.17L144.806 41.3144H141.44L136.076 54.0044ZM141.674 49.0364L143.096 45.4544L144.5 49.0364H141.674ZM151.393 54.0044H154.813V46.8044L158.017 51.7004H158.089L161.311 46.7684V54.0044H164.785V41.4044H161.095L158.089 46.2824L155.083 41.4044H151.393V54.0044ZM167.92 49.9004H169.72L170.764 42.9344V41.4044H166.876V42.9344L167.92 49.9004ZM167.038 54.0044H170.602V50.9444H167.038V54.0044Z" fill="white"/>
<path d="M69.8959 35.076C78.0559 35.076 83.4799 30.996 83.4799 24.132V24.036C83.4799 17.748 78.6799 15.252 70.9519 13.572C66.2959 12.516 65.1439 11.844 65.1439 10.308V10.212C65.1439 9.012 66.2479 8.052 68.5039 8.052C71.4799 8.052 74.8399 9.204 77.9119 11.364L82.5679 4.788C78.9199 1.86 74.4559 0.323999 68.7439 0.323999C60.6799 0.323999 55.7359 4.836 55.7359 11.076V11.172C55.7359 18.084 61.2559 20.1 68.4079 21.732C72.9679 22.788 74.0719 23.556 74.0719 24.948V25.044C74.0719 26.484 72.7279 27.348 70.2319 27.348C66.3439 27.348 62.6479 25.956 59.3359 23.316L54.1519 29.508C58.2799 33.204 63.9439 35.076 69.8959 35.076ZM88.2004 34.5H97.5604V0.899998H88.2004V34.5ZM120.848 35.172C126.944 35.172 131.888 32.916 135.44 29.988V14.868H119.984V21.684H126.608V25.764C125.216 26.676 123.488 27.156 121.232 27.156C115.904 27.156 112.112 23.268 112.112 17.844V17.748C112.112 12.612 115.856 8.532 120.704 8.532C124.016 8.532 126.416 9.684 128.816 11.7L134.288 5.124C130.736 2.052 126.56 0.227998 120.656 0.227998C110.24 0.227998 102.56 7.908 102.56 17.7V17.796C102.56 27.972 110.384 35.172 120.848 35.172ZM140.602 34.5H149.818V16.068L164.17 34.5H172.33V0.899998H163.114V18.66L149.29 0.899998H140.602V34.5ZM206.722 35.124C216.274 35.124 222.466 30.372 222.466 19.524V0.899998H213.01V19.812C213.01 24.516 210.562 26.724 206.818 26.724C203.074 26.724 200.626 24.42 200.626 19.572V0.899998H191.17V19.764C191.17 30.276 197.17 35.124 206.722 35.124ZM227.977 34.5H237.289V24.9H241.897C250.249 24.9 256.345 20.724 256.345 12.804V12.708C256.345 5.268 250.873 0.899998 242.377 0.899998H227.977V34.5ZM237.289 17.604V8.724H241.657C245.017 8.724 247.033 10.26 247.033 13.14V13.236C247.033 15.876 245.017 17.604 241.705 17.604H237.289Z" fill="white"/>
</g>
<defs>
<clipPath id="clip0_173_861">
<rect width="256.3" height="55.3" fill="white"/>
</clipPath>
</defs>
</svg>
